<mxfile host="app.diagrams.net" modified="2023-04-13T07:37:36.086Z" agent="Mozilla/5.0 (Windows NT 10.0; Win64; x64) AppleWebKit/537.36 (KHTML, like Gecko) Chrome/112.0.0.0 Safari/537.36 Edg/112.0.1722.34" version="21.1.5" etag="-ASlVloLx2m_6Qv6ZDHh" type="github">
  <diagram name="Page-1" id="hsnVrVkHW7dvxxVrfrsD">
    <mxGraphModel>
      <root>
        <mxCell id="0" />
        <mxCell id="1" parent="0" />
      </root>
    </mxGraphModel>
  </diagram>
</mxfile>
